<?xml version="1.0" encoding="UTF-8" standalone="no"?>
<!DOCTYPE svg PUBLIC "-//W3C//DTD SVG 1.1//EN" "http://www.w3.org/Graphics/SVG/1.1/DTD/svg11.dtd">
<svg xmlns="http://www.w3.org/2000/svg" version="1.1" viewBox="0.00 0.00 67.00 34.00">
<path fill="#ffffff" d="
  M 23.25 18.20
  C 27.41 18.19 29.69 14.27 33.35 13.70
  C 37.18 13.12 39.21 15.72 41.97 16.43
  Q 49.06 18.26 53.63 11.50
  A 1.36 1.36 0.0 0 1 55.53 11.15
  L 55.86 11.38
  Q 57.43 12.46 56.38 14.05
  C 50.86 22.40 42.87 22.36 34.76 17.96
  Q 33.64 17.35 32.26 18.50
  Q 29.48 20.83 26.11 21.75
  C 20.42 23.32 14.71 20.14 11.27 15.66
  A 1.51 1.50 -38.7 0 1 11.50 13.58
  L 11.71 13.40
  Q 13.24 12.12 14.59 13.59
  Q 18.87 18.20 23.25 18.20
  Z"
/>
</svg>
