<?xml version="1.0" encoding="UTF-8" standalone="no"?>
<!DOCTYPE svg PUBLIC "-//W3C//DTD SVG 1.1//EN" "http://www.w3.org/Graphics/SVG/1.1/DTD/svg11.dtd">
<svg xmlns="http://www.w3.org/2000/svg" version="1.1" viewBox="0.00 0.00 67.00 34.00">
<path stroke="#f1f0f0" stroke-width="2.00" fill="none" stroke-linecap="butt" vector-effect="non-scaling-stroke" d="
  M 53.02 13.74
  C 47.02 14.24 40.52 12.11 34.72 10.32
  Q 33.47 9.93 32.74 10.21
  Q 25.47 13.07 18.75 14.02
  Q 14.76 14.59 18.79 14.78
  C 21.28 14.90 24.24 14.65 26.73 14.84
  Q 37.79 15.66 48.65 19.34"
/>
<path fill="#ffffff" d="
  M 53.02 13.74
  C 47.02 14.24 40.52 12.11 34.72 10.32
  Q 33.47 9.93 32.74 10.21
  Q 25.47 13.07 18.75 14.02
  Q 14.76 14.59 18.79 14.78
  C 21.28 14.90 24.24 14.65 26.73 14.84
  Q 37.79 15.66 48.65 19.34
  C 38.26 28.72 22.94 26.45 15.92 14.42
  Q 15.69 14.03 15.24 14.03
  Q 12.87 14.02 10.90 12.74
  Q 9.23 11.64 10.42 10.03
  L 10.66 9.70
  A 1.51 1.51 0.0 0 1 12.57 9.25
  C 17.62 11.82 26.70 8.28 31.82 6.30
  A 4.72 4.69 -49.5 0 1 34.50 6.08
  C 40.68 7.39 48.91 11.54 55.05 9.35
  C 56.02 9.01 57.29 9.19 57.76 10.04
  A 2.07 2.07 0.0 0 1 57.10 12.74
  Q 55.70 13.69 53.02 13.74
  Z"
/>
<path fill="#e2e0e0" d="
  M 53.02 13.74
  L 48.65 19.34
  Q 37.79 15.66 26.73 14.84
  C 24.24 14.65 21.28 14.90 18.79 14.78
  Q 14.76 14.59 18.75 14.02
  Q 25.47 13.07 32.74 10.21
  Q 33.47 9.93 34.72 10.32
  C 40.52 12.11 47.02 14.24 53.02 13.74
  Z"
/>
</svg>
