<?xml version="1.0" encoding="UTF-8" standalone="no"?>
<!DOCTYPE svg PUBLIC "-//W3C//DTD SVG 1.1//EN" "http://www.w3.org/Graphics/SVG/1.1/DTD/svg11.dtd">
<svg xmlns="http://www.w3.org/2000/svg" version="1.1" viewBox="0.00 0.00 67.00 34.00">
<path stroke="#f1f0f0" stroke-width="2.00" fill="none" stroke-linecap="butt" vector-effect="non-scaling-stroke" d="
  M 51.40 24.69
  C 48.86 20.79 45.75 16.15 41.50 16.01
  Q 34.44 15.78 26.00 16.59
  C 20.80 17.08 19.39 20.00 17.09 24.16"
/>
<path fill="#e2e0e0" d="
  M 51.40 24.69
  C 48.86 20.79 45.75 16.15 41.50 16.01
  Q 34.44 15.78 26.00 16.59
  C 20.80 17.08 19.39 20.00 17.09 24.16
  Q 14.23 20.69 13.61 16.56
  Q 13.53 16.08 13.85 15.70
  Q 21.13 6.96 32.74 6.47
  C 41.79 6.08 47.88 10.72 54.73 15.76
  Q 55.12 16.06 55.06 16.54
  Q 54.45 21.35 51.40 24.69
  Z"
/>
<path fill="#ffffff" d="
  M 51.40 24.69
  Q 47.80 26.91 43.75 27.49
  C 36.25 28.55 23.14 29.50 17.09 24.16
  C 19.39 20.00 20.80 17.08 26.00 16.59
  Q 34.44 15.78 41.50 16.01
  C 45.75 16.15 48.86 20.79 51.40 24.69
  Z"
/>
</svg>
