<?xml version="1.0" encoding="UTF-8" standalone="no"?>
<!DOCTYPE svg PUBLIC "-//W3C//DTD SVG 1.1//EN" "http://www.w3.org/Graphics/SVG/1.1/DTD/svg11.dtd">
<svg xmlns="http://www.w3.org/2000/svg" version="1.1" viewBox="0.00 0.00 67.00 34.00">
<g stroke-width="2.00" fill="none" stroke-linecap="butt">
<path stroke="#f1f0f0" vector-effect="non-scaling-stroke" d="
  M 52.14 10.09
  Q 42.86 9.61 33.94 6.40
  C 33.01 6.06 32.35 5.89 31.34 6.31
  Q 23.05 9.80 14.33 10.30"
/>
<path stroke="#f1f0f0" vector-effect="non-scaling-stroke" d="
  M 46.29 21.22
  Q 46.29 19.87 46.76 19.28
  Q 47.50 18.36 46.40 17.92
  C 38.05 14.56 24.28 11.06 15.27 12.78"
/>
</g>
<path fill="#ffffff" d="
  M 52.14 10.09
  Q 42.86 9.61 33.94 6.40
  C 33.01 6.06 32.35 5.89 31.34 6.31
  Q 23.05 9.80 14.33 10.30
  L 10.22 8.97
  Q 8.17 8.31 9.20 6.41
  L 9.49 5.86
  A 1.51 1.50 27.4 0 1 11.48 5.23
  C 16.45 7.72 24.57 4.62 29.66 2.76
  C 34.36 1.04 38.13 3.62 42.53 4.72
  C 46.61 5.73 50.60 6.55 54.58 5.20
  A 1.84 1.83 -19.8 0 1 56.89 6.28
  L 56.99 6.53
  A 1.68 1.68 0.0 0 1 55.99 8.71
  L 52.14 10.09
  Z"
/>
<path fill="#e2e0e0" d="
  M 52.14 10.09
  Q 50.07 16.20 46.29 21.22
  Q 46.29 19.87 46.76 19.28
  Q 47.50 18.36 46.40 17.92
  C 38.05 14.56 24.28 11.06 15.27 12.78
  Q 14.45 11.70 14.33 10.30
  Q 23.05 9.80 31.34 6.31
  C 32.35 5.89 33.01 6.06 33.94 6.40
  Q 42.86 9.61 52.14 10.09
  Z"
/>
<path fill="#ffffff" d="
  M 46.29 21.22
  C 42.56 26.63 36.11 30.39 29.62 28.64
  C 22.82 26.81 17.65 19.31 15.27 12.78
  C 24.28 11.06 38.05 14.56 46.40 17.92
  Q 47.50 18.36 46.76 19.28
  Q 46.29 19.87 46.29 21.22
  Z"
/>
</svg>
