<?xml version="1.0" encoding="UTF-8" standalone="no"?>
<!DOCTYPE svg PUBLIC "-//W3C//DTD SVG 1.1//EN" "http://www.w3.org/Graphics/SVG/1.1/DTD/svg11.dtd">
<svg xmlns="http://www.w3.org/2000/svg" version="1.1" viewBox="0.00 0.00 67.00 34.00">
<g stroke-width="2.00" fill="none" stroke-linecap="butt">
<path stroke="#f1f0f0" vector-effect="non-scaling-stroke" d="
  M 50.62 14.45
  Q 46.15 14.45 41.81 14.52
  C 38.85 14.56 36.44 13.80 33.68 12.98
  A 1.50 1.47 -47.3 0 0 32.69 13.03
  C 27.41 15.19 23.34 14.40 18.14 14.05
  Q 17.73 14.03 17.52 14.38
  Q 17.29 14.77 16.66 14.70"
/>
<path stroke="#f1f0f0" vector-effect="non-scaling-stroke" d="
  M 44.92 19.03
  Q 31.52 15.60 26.51 15.73
  Q 22.36 15.83 18.25 15.45
  Q 18.08 15.43 17.88 15.78"
/>
</g>
<path fill="#ffffff" d="
  M 50.62 14.45
  Q 46.15 14.45 41.81 14.52
  C 38.85 14.56 36.44 13.80 33.68 12.98
  A 1.50 1.47 -47.3 0 0 32.69 13.03
  C 27.41 15.19 23.34 14.40 18.14 14.05
  Q 17.73 14.03 17.52 14.38
  Q 17.29 14.77 16.66 14.70
  Q 14.69 13.72 11.10 13.95
  A 1.47 1.46 -1.5 0 1 9.54 12.48
  L 9.54 12.00
  Q 9.56 9.93 11.64 9.98
  C 19.12 10.20 25.87 11.66 32.07 9.07
  Q 32.60 8.84 33.96 8.98
  Q 34.69 9.05 35.78 9.43
  C 41.68 11.49 47.64 10.30 55.50 10.00
  Q 57.77 9.91 57.41 12.16
  L 57.36 12.49
  A 1.80 1.79 1.8 0 1 55.75 13.99
  L 50.62 14.45
  Z"
/>
<path fill="#e2e0e0" d="
  M 50.62 14.45
  L 44.92 19.03
  Q 31.52 15.60 26.51 15.73
  Q 22.36 15.83 18.25 15.45
  Q 18.08 15.43 17.88 15.78
  L 16.66 14.70
  Q 17.29 14.77 17.52 14.38
  Q 17.73 14.03 18.14 14.05
  C 23.34 14.40 27.41 15.19 32.69 13.03
  A 1.50 1.47 -47.3 0 1 33.68 12.98
  C 36.44 13.80 38.85 14.56 41.81 14.52
  Q 46.15 14.45 50.62 14.45
  Z"
/>
<path fill="#ffffff" d="
  M 44.92 19.03
  C 35.14 27.23 25.88 23.93 17.88 15.78
  Q 18.08 15.43 18.25 15.45
  Q 22.36 15.83 26.51 15.73
  Q 31.52 15.60 44.92 19.03
  Z"
/>
</svg>
