<?xml version="1.0" encoding="UTF-8" standalone="no"?>
<!DOCTYPE svg PUBLIC "-//W3C//DTD SVG 1.1//EN" "http://www.w3.org/Graphics/SVG/1.1/DTD/svg11.dtd">
<svg xmlns="http://www.w3.org/2000/svg" version="1.1" viewBox="0.00 0.00 67.00 34.00">
<path stroke="#f1f0f0" stroke-width="2.00" fill="none" stroke-linecap="butt" vector-effect="non-scaling-stroke" d="
  M 50.23 18.17
  Q 49.89 17.22 48.63 17.08
  C 43.24 16.47 35.73 10.56 30.53 12.98
  Q 24.40 15.84 18.89 17.18
  Q 15.87 17.92 18.95 18.34
  Q 30.30 19.90 42.60 18.63
  C 44.85 18.40 47.05 18.56 49.22 18.74"
/>
<path fill="#ffffff" d="
  M 50.23 18.17
  Q 49.89 17.22 48.63 17.08
  C 43.24 16.47 35.73 10.56 30.53 12.98
  Q 24.40 15.84 18.89 17.18
  Q 15.87 17.92 18.95 18.34
  Q 30.30 19.90 42.60 18.63
  C 44.85 18.40 47.05 18.56 49.22 18.74
  C 37.37 26.55 26.73 25.17 14.65 19.07
  C 13.29 18.39 12.20 18.31 10.73 18.19
  A 1.57 1.56 -83.6 0 1 9.31 16.40
  L 9.36 16.07
  Q 9.58 14.59 11.07 14.46
  C 18.54 13.84 23.85 11.56 31.73 8.25
  Q 32.43 7.95 34.48 8.43
  C 40.71 9.90 48.11 13.76 55.87 14.30
  A 1.50 1.50 0.0 0 1 57.27 15.84
  L 57.25 16.30
  Q 57.19 18.50 55.02 18.13
  Q 51.98 17.60 50.23 18.17
  Z"
/>
<path fill="#e2e0e0" d="
  M 50.23 18.17
  Q 49.97 18.68 49.22 18.74
  C 47.05 18.56 44.85 18.40 42.60 18.63
  Q 30.30 19.90 18.95 18.34
  Q 15.87 17.92 18.89 17.18
  Q 24.40 15.84 30.53 12.98
  C 35.73 10.56 43.24 16.47 48.63 17.08
  Q 49.89 17.22 50.23 18.17
  Z"
/>
</svg>
