<?xml version="1.0" encoding="UTF-8" standalone="no"?>
<!DOCTYPE svg PUBLIC "-//W3C//DTD SVG 1.1//EN" "http://www.w3.org/Graphics/SVG/1.1/DTD/svg11.dtd">
<svg xmlns="http://www.w3.org/2000/svg" version="1.1" viewBox="0.00 0.00 67.00 34.00">
<path stroke="#f1f0f0" stroke-width="2.00" fill="none" stroke-linecap="butt" vector-effect="non-scaling-stroke" d="
  M 59.12 10.52
  C 46.49 21.44 30.34 23.63 14.87 18.45
  Q 11.27 17.24 7.49 15.67"
/>
<path fill="#ffffff" d="
  M 59.12 10.52
  C 46.49 21.44 30.34 23.63 14.87 18.45
  Q 11.27 17.24 7.49 15.67
  C 5.12 6.45 43.72 7.11 49.25 7.36
  Q 55.02 7.62 59.12 10.52
  Z"
/>
<path fill="#e2e0e0" d="
  M 59.12 10.52
  Q 59.11 14.40 54.00 18.05
  Q 40.00 28.05 22.85 24.70
  C 17.64 23.68 9.83 20.93 7.49 15.67
  Q 11.27 17.24 14.87 18.45
  C 30.34 23.63 46.49 21.44 59.12 10.52
  Z"
/>
</svg>
