<?xml version="1.0" encoding="UTF-8" standalone="no"?>
<!DOCTYPE svg PUBLIC "-//W3C//DTD SVG 1.1//EN" "http://www.w3.org/Graphics/SVG/1.1/DTD/svg11.dtd">
<svg xmlns="http://www.w3.org/2000/svg" version="1.1" viewBox="0.00 0.00 67.00 34.00">
<path stroke="#f1f0f0" stroke-width="2.00" fill="none" stroke-linecap="butt" vector-effect="non-scaling-stroke" d="
  M 52.08 19.19
  Q 44.38 17.09 37.08 14.11
  C 35.16 13.32 32.90 12.93 30.76 13.92
  Q 24.47 16.86 17.83 18.40
  A 0.27 0.27 0.0 0 0 17.63 18.74
  L 17.71 19.02
  Q 17.86 19.56 18.41 19.46
  C 28.99 17.53 40.54 18.01 51.05 20.12"
/>
<path fill="#ffffff" d="
  M 52.08 19.19
  Q 44.38 17.09 37.08 14.11
  C 35.16 13.32 32.90 12.93 30.76 13.92
  Q 24.47 16.86 17.83 18.40
  A 0.27 0.27 0.0 0 0 17.63 18.74
  L 17.71 19.02
  Q 17.86 19.56 18.41 19.46
  C 28.99 17.53 40.54 18.01 51.05 20.12
  Q 47.85 22.42 41.75 22.47
  Q 32.37 22.55 22.99 22.46
  Q 19.99 22.44 17.74 21.04
  C 15.04 19.36 13.89 19.28 10.96 19.30
  A 1.61 1.60 84.3 0 1 9.39 18.01
  L 9.33 17.66
  Q 8.93 15.63 10.99 15.47
  C 18.46 14.87 23.76 12.59 31.73 9.25
  Q 32.43 8.95 34.48 9.43
  C 40.76 10.92 48.20 14.83 55.95 15.28
  A 1.39 1.39 0.0 0 1 57.24 16.88
  L 57.16 17.36
  Q 56.86 19.24 54.96 19.08
  Q 52.90 18.91 52.08 19.19
  Z"
/>
<path fill="#e2e0e0" d="
  M 52.08 19.19
  L 51.05 20.12
  C 40.54 18.01 28.99 17.53 18.41 19.46
  Q 17.86 19.56 17.71 19.02
  L 17.63 18.74
  A 0.27 0.27 0.0 0 1 17.83 18.40
  Q 24.47 16.86 30.76 13.92
  C 32.90 12.93 35.16 13.32 37.08 14.11
  Q 44.38 17.09 52.08 19.19
  Z"
/>
</svg>
