<?xml version="1.0" encoding="UTF-8" standalone="no"?>
<!DOCTYPE svg PUBLIC "-//W3C//DTD SVG 1.1//EN" "http://www.w3.org/Graphics/SVG/1.1/DTD/svg11.dtd">
<svg xmlns="http://www.w3.org/2000/svg" version="1.1" viewBox="0.00 0.00 67.00 34.00">
<path stroke="#f1f0f0" stroke-width="2.00" fill="none" stroke-linecap="butt" vector-effect="non-scaling-stroke" d="
  M 51.58 15.87
  Q 41.75 14.17 32.46 11.34
  Q 31.05 10.91 30.26 11.27
  Q 23.55 14.26 16.27 15.40
  Q 16.01 15.44 16.17 15.65
  Q 16.26 15.77 16.39 15.85
  Q 17.05 16.25 17.25 16.26
  Q 31.48 16.31 46.11 19.20"
/>
<path fill="#ffffff" d="
  M 51.58 15.87
  Q 41.75 14.17 32.46 11.34
  Q 31.05 10.91 30.26 11.27
  Q 23.55 14.26 16.27 15.40
  Q 16.01 15.44 16.17 15.65
  Q 16.26 15.77 16.39 15.85
  Q 17.05 16.25 17.25 16.26
  Q 31.48 16.31 46.11 19.20
  C 34.48 27.05 23.21 24.50 12.91 16.21
  A 1.18 1.15 -29.2 0 0 11.99 15.96
  C 10.31 16.19 7.05 16.24 8.12 13.32
  A 1.75 1.75 0.0 0 1 9.74 12.16
  C 16.97 12.02 23.18 9.66 29.88 7.32
  C 30.87 6.97 32.42 6.85 33.39 7.19
  Q 44.95 11.27 56.47 12.27
  A 1.45 1.45 0.0 0 1 57.78 13.88
  L 57.73 14.32
  A 1.98 1.97 4.3 0 1 55.68 16.07
  L 51.58 15.87
  Z"
/>
<path fill="#e2e0e0" d="
  M 51.58 15.87
  L 46.11 19.20
  Q 31.48 16.31 17.25 16.26
  Q 17.05 16.25 16.39 15.85
  Q 16.26 15.77 16.17 15.65
  Q 16.01 15.44 16.27 15.40
  Q 23.55 14.26 30.26 11.27
  Q 31.05 10.91 32.46 11.34
  Q 41.75 14.17 51.58 15.87
  Z"
/>
</svg>
