<?xml version="1.0" encoding="UTF-8" standalone="no"?>
<!DOCTYPE svg PUBLIC "-//W3C//DTD SVG 1.1//EN" "http://www.w3.org/Graphics/SVG/1.1/DTD/svg11.dtd">
<svg xmlns="http://www.w3.org/2000/svg" version="1.1" viewBox="0.00 0.00 67.00 34.00">
<g stroke-width="2.00" fill="none" stroke-linecap="butt">
<path stroke="#f1f0f0" vector-effect="non-scaling-stroke" d="
  M 53.37 9.76
  C 47.18 10.24 40.81 8.26 35.01 6.22
  C 34.41 6.01 33.06 6.02 32.33 6.32
  Q 24.05 9.81 15.31 10.29"
/>
<path stroke="#f1f0f0" vector-effect="non-scaling-stroke" d="
  M 47.98 20.38
  Q 47.53 20.16 47.79 18.87
  Q 47.91 18.31 47.40 18.04
  Q 45.12 16.87 43.76 16.46
  C 34.88 13.78 25.36 11.74 16.22 12.76"
/>
</g>
<path fill="#ffffff" d="
  M 53.37 9.76
  C 47.18 10.24 40.81 8.26 35.01 6.22
  C 34.41 6.01 33.06 6.02 32.33 6.32
  Q 24.05 9.81 15.31 10.29
  L 11.22 8.97
  Q 9.17 8.31 10.20 6.41
  L 10.49 5.86
  A 1.51 1.50 27.4 0 1 12.48 5.23
  C 17.45 7.72 25.57 4.62 30.66 2.76
  Q 32.96 1.91 34.96 2.25
  C 42.03 3.44 48.66 7.62 55.04 5.35
  C 56.01 5.01 57.29 5.18 57.75 6.03
  A 2.07 2.07 0.0 0 1 57.06 8.75
  Q 55.79 9.58 53.37 9.76
  Z"
/>
<path fill="#e2e0e0" d="
  M 53.37 9.76
  L 47.98 20.38
  Q 47.53 20.16 47.79 18.87
  Q 47.91 18.31 47.40 18.04
  Q 45.12 16.87 43.76 16.46
  C 34.88 13.78 25.36 11.74 16.22 12.76
  Q 15.45 11.66 15.31 10.29
  Q 24.05 9.81 32.33 6.32
  C 33.06 6.02 34.41 6.01 35.01 6.22
  C 40.81 8.26 47.18 10.24 53.37 9.76
  Z"
/>
<path fill="#ffffff" d="
  M 47.98 20.38
  C 35.58 36.78 21.97 27.48 16.22 12.76
  C 25.36 11.74 34.88 13.78 43.76 16.46
  Q 45.12 16.87 47.40 18.04
  Q 47.91 18.31 47.79 18.87
  Q 47.53 20.16 47.98 20.38
  Z"
/>
</svg>
