<?xml version="1.0" encoding="UTF-8" standalone="no"?>
<!DOCTYPE svg PUBLIC "-//W3C//DTD SVG 1.1//EN" "http://www.w3.org/Graphics/SVG/1.1/DTD/svg11.dtd">
<svg xmlns="http://www.w3.org/2000/svg" version="1.1" viewBox="0.00 0.00 67.00 34.00">
<g stroke-width="2.00" fill="none" stroke-linecap="butt">
<path stroke="#f1f0f0" vector-effect="non-scaling-stroke" d="
  M 57.03 12.20
  Q 48.79 11.89 40.73 11.01
  C 37.83 10.69 34.99 9.75 32.10 8.97
  Q 31.60 8.84 31.11 9.02
  C 23.67 11.79 16.70 11.76 9.20 12.25"
/>
<path stroke="#f1f0f0" vector-effect="non-scaling-stroke" d="
  M 53.19 18.27
  Q 32.88 14.74 12.58 18.22"
/>
</g>
<path fill="#ffffff" d="
  M 57.03 12.20
  Q 48.79 11.89 40.73 11.01
  C 37.83 10.69 34.99 9.75 32.10 8.97
  Q 31.60 8.84 31.11 9.02
  C 23.67 11.79 16.70 11.76 9.20 12.25
  L 8.25 11.07
  A 1.87 1.87 0.0 0 1 9.71 8.03
  C 16.49 8.05 23.68 7.73 30.12 5.10
  C 31.05 4.72 32.93 5.01 34.10 5.41
  C 40.90 7.68 49.01 7.97 56.03 8.04
  A 1.84 1.84 0.0 0 1 57.71 10.59
  L 57.03 12.20
  Z"
/>
<path fill="#e2e0e0" d="
  M 57.03 12.20
  Q 55.48 15.90 53.19 18.27
  Q 32.88 14.74 12.58 18.22
  Q 10.50 15.74 9.20 12.25
  C 16.70 11.76 23.67 11.79 31.11 9.02
  Q 31.60 8.84 32.10 8.97
  C 34.99 9.75 37.83 10.69 40.73 11.01
  Q 48.79 11.89 57.03 12.20
  Z"
/>
<path fill="#ffffff" d="
  M 53.19 18.27
  C 42.15 30.63 23.20 31.91 12.58 18.22
  Q 32.88 14.74 53.19 18.27
  Z"
/>
</svg>
