<?xml version="1.0" encoding="UTF-8" standalone="no"?>
<!DOCTYPE svg PUBLIC "-//W3C//DTD SVG 1.1//EN" "http://www.w3.org/Graphics/SVG/1.1/DTD/svg11.dtd">
<svg xmlns="http://www.w3.org/2000/svg" version="1.1" viewBox="0.00 0.00 67.00 34.00">
<path stroke="#f4f4f4" stroke-width="2.00" fill="none" stroke-linecap="butt" vector-effect="non-scaling-stroke" d="
  M 52.94 19.90
  C 46.24 19.85 42.16 18.67 35.14 16.38
  C 34.42 16.14 33.14 16.16 32.43 16.42
  Q 23.33 19.74 13.77 20.65"
/>
<path fill="#ffffff" d="
  M 52.94 19.90
  C 46.24 19.85 42.16 18.67 35.14 16.38
  C 34.42 16.14 33.14 16.16 32.43 16.42
  Q 23.33 19.74 13.77 20.65
  L 9.16 18.88
  Q 7.37 18.20 8.18 16.46
  L 8.33 16.13
  Q 9.09 14.48 10.71 15.32
  C 15.46 17.77 27.38 14.20 32.29 12.34
  C 34.55 11.48 39.29 13.27 41.56 14.01
  C 46.32 15.56 51.24 16.78 55.87 15.08
  Q 57.23 14.58 57.76 15.94
  L 57.97 16.50
  A 1.71 1.71 0.0 0 1 57.26 18.58
  Q 55.54 19.61 52.94 19.90
  Z"
/>
<path fill="#e9e9e9" d="
  M 52.94 19.90
  Q 51.78 22.46 48.51 21.90
  C 37.05 19.96 28.18 20.48 16.26 22.04
  Q 14.22 22.31 13.77 20.65
  Q 23.33 19.74 32.43 16.42
  C 33.14 16.16 34.42 16.14 35.14 16.38
  C 42.16 18.67 46.24 19.85 52.94 19.90
  Z"
/>
</svg>
