<?xml version="1.0" encoding="UTF-8" standalone="no"?>
<!DOCTYPE svg PUBLIC "-//W3C//DTD SVG 1.1//EN" "http://www.w3.org/Graphics/SVG/1.1/DTD/svg11.dtd">
<svg xmlns="http://www.w3.org/2000/svg" version="1.1" viewBox="0.00 0.00 67.00 34.00">
<g stroke-width="2.00" fill="none" stroke-linecap="butt">
<path stroke="#f1f0f0" vector-effect="non-scaling-stroke" d="
  M 51.33 13.23
  Q 42.24 14.36 34.50 12.25
  C 32.20 11.62 29.86 13.21 27.45 13.26
  Q 21.80 13.38 15.93 13.40"
/>
<path stroke="#f1f0f0" vector-effect="non-scaling-stroke" d="
  M 46.06 18.39
  Q 31.75 14.28 17.07 14.70"
/>
</g>
<path fill="#ffffff" d="
  M 51.33 13.23
  Q 42.24 14.36 34.50 12.25
  C 32.20 11.62 29.86 13.21 27.45 13.26
  Q 21.80 13.38 15.93 13.40
  L 10.85 12.86
  A 1.48 1.48 0.0 0 1 9.54 11.20
  L 9.59 10.77
  A 2.09 2.09 0.0 0 1 11.78 8.94
  C 17.15 9.23 22.92 9.99 27.69 9.37
  C 29.91 9.09 32.53 7.38 34.89 8.09
  Q 40.63 9.81 44.25 9.59
  Q 49.88 9.26 55.35 8.96
  A 2.01 2.00 -4.9 0 1 57.45 10.72
  C 57.66 12.46 56.38 13.05 54.81 13.01
  Q 52.76 12.97 51.33 13.23
  Z"
/>
<path fill="#e2e0e0" d="
  M 51.33 13.23
  L 46.06 18.39
  Q 31.75 14.28 17.07 14.70
  Q 16.28 14.14 15.93 13.40
  Q 21.80 13.38 27.45 13.26
  C 29.86 13.21 32.20 11.62 34.50 12.25
  Q 42.24 14.36 51.33 13.23
  Z"
/>
<path fill="#ffffff" d="
  M 17.07 14.70
  Q 31.75 14.28 46.06 18.39
  C 41.09 23.43 34.60 27.06 27.78 23.42
  Q 21.56 20.10 17.07 14.70
  Z"
/>
</svg>
