<?xml version="1.0" encoding="UTF-8" standalone="no"?>
<!DOCTYPE svg PUBLIC "-//W3C//DTD SVG 1.1//EN" "http://www.w3.org/Graphics/SVG/1.1/DTD/svg11.dtd">
<svg xmlns="http://www.w3.org/2000/svg" version="1.1" viewBox="0.00 0.00 67.00 34.00">
<path stroke="#f1f0f0" stroke-width="2.00" fill="none" stroke-linecap="butt" vector-effect="non-scaling-stroke" d="
  M 57.38 11.27
  Q 57.30 12.30 55.50 13.07
  Q 44.37 17.84 32.99 18.40
  Q 18.97 19.08 7.28 15.37"
/>
<path fill="#ffffff" d="
  M 57.38 11.27
  Q 57.30 12.30 55.50 13.07
  Q 44.37 17.84 32.99 18.40
  Q 18.97 19.08 7.28 15.37
  Q 10.49 12.85 15.76 12.11
  C 28.19 10.35 42.00 9.11 54.49 10.53
  Q 55.96 10.70 57.38 11.27
  Z"
/>
<path fill="#e2e0e0" d="
  M 57.38 11.27
  Q 57.96 11.38 58.51 11.80
  A 1.37 1.37 0.0 0 1 58.56 13.94
  Q 55.77 16.25 52.23 17.75
  Q 32.39 26.16 11.73 19.72
  C 10.92 19.47 8.08 17.88 7.54 16.64
  Q 7.16 15.78 7.28 15.37
  Q 18.97 19.08 32.99 18.40
  Q 44.37 17.84 55.50 13.07
  Q 57.30 12.30 57.38 11.27
  Z"
/>
</svg>
